<svg width="224" height="196" viewBox="0 0 224 196" fill="none" xmlns="http://www.w3.org/2000/svg">
<path d="M201.747 0.459991C196.177 -8.55327e-06 190.137 0 185.027 0C178.527 0 172.027 0 165.057 0C152.977 0 140.907 0 128.827 0C115.827 0 102.817 0 89.8169 0C78.2069 0 66.1269 0 54.5169 0C46.1569 0 38.2569 0 29.8969 0C27.5769 0 24.7869 0 22.4669 0C4.81688 0 -5.86313 19.04 3.42687 33.9L98.6369 185.31C103.747 193.21 113.497 197.39 122.787 195.06C133.467 192.74 141.367 182.06 137.647 171.37C135.787 165.8 132.077 161.62 129.287 156.97C126.967 153.25 124.647 149.54 122.317 145.82C116.747 137 111.167 127.71 105.137 118.88C96.3169 104.95 87.4869 91.01 78.6669 76.61C78.2069 76.15 77.7369 75.22 77.7369 74.75C73.5569 68.25 73.0969 59.89 76.8069 52.92C78.6669 49.67 80.9869 46.88 84.2369 44.56C87.9569 41.77 92.1369 41.31 96.3169 40.84C102.817 40.84 108.857 40.38 115.357 40.38C129.287 40.38 143.687 39.92 157.627 39.92C159.017 39.92 160.877 39.92 161.807 41.31C162.267 42.24 162.267 43.17 161.807 44.1C159.947 47.35 156.237 50.14 153.907 52.92C151.117 56.17 148.337 59.42 146.007 62.67C141.367 69.64 139.967 77.53 144.617 84.96C148.797 91.93 158.087 95.18 165.517 92.86C174.807 90.07 182.237 80.32 188.737 73.35C196.637 64.99 203.597 56.17 211.027 47.34C211.957 45.95 213.347 44.55 214.277 43.16C217.067 39.91 219.387 36.19 221.247 32.48C226.357 22.73 224.037 11.58 214.747 4.60999C210.577 2.31999 206.397 0.919991 201.747 0.459991Z" fill="url(#paint0_linear_486_3636)"/>
<defs>
<linearGradient id="paint0_linear_486_3636" x1="1.60092" y1="98.9658" x2="224.961" y2="95.3151" gradientUnits="userSpaceOnUse">
<stop stop-color="white"/>
<stop offset="0.1463" stop-color="#D5EEFC"/>
<stop offset="0.3532" stop-color="#94D5F7"/>
<stop offset="0.5042" stop-color="#5AC5F2"/>
<stop offset="0.5824" stop-color="#38BFF0"/>
<stop offset="0.705" stop-color="#2DBCED"/>
<stop offset="0.807" stop-color="#00B2E5"/>
<stop offset="0.9012" stop-color="#00A3D6"/>
<stop offset="0.9908" stop-color="#008FC2"/>
<stop offset="0.9944" stop-color="#008EC2"/>
</linearGradient>
</defs>
</svg>
