<svg width="928" height="196" viewBox="0 0 928 196" fill="none" xmlns="http://www.w3.org/2000/svg">
<path d="M201.747 0.459991C196.177 -8.55327e-06 190.137 0 185.027 0C178.527 0 172.027 0 165.057 0C152.977 0 140.907 0 128.827 0C115.827 0 102.817 0 89.8169 0C78.2069 0 66.1269 0 54.5169 0C46.1569 0 38.2569 0 29.8969 0C27.5769 0 24.7869 0 22.4669 0C4.81688 0 -5.86313 19.04 3.42687 33.9L98.6369 185.31C103.747 193.21 113.497 197.39 122.787 195.06C133.467 192.74 141.367 182.06 137.647 171.37C135.787 165.8 132.077 161.62 129.287 156.97C126.967 153.25 124.647 149.54 122.317 145.82C116.747 137 111.167 127.71 105.137 118.88C96.3169 104.95 87.4869 91.01 78.6669 76.61C78.2069 76.15 77.7369 75.22 77.7369 74.75C73.5569 68.25 73.0969 59.89 76.8069 52.92C78.6669 49.67 80.9869 46.88 84.2369 44.56C87.9569 41.77 92.1369 41.31 96.3169 40.84C102.817 40.84 108.857 40.38 115.357 40.38C129.287 40.38 143.687 39.92 157.627 39.92C159.017 39.92 160.877 39.92 161.807 41.31C162.267 42.24 162.267 43.17 161.807 44.1C159.947 47.35 156.237 50.14 153.907 52.92C151.117 56.17 148.337 59.42 146.007 62.67C141.367 69.64 139.967 77.53 144.617 84.96C148.797 91.93 158.087 95.18 165.517 92.86C174.807 90.07 182.237 80.32 188.737 73.35C196.637 64.99 203.597 56.17 211.027 47.34C211.957 45.95 213.347 44.55 214.277 43.16C217.067 39.91 219.387 36.19 221.247 32.48C226.357 22.73 224.037 11.58 214.747 4.60999C210.577 2.31999 206.397 0.919991 201.747 0.459991Z" fill="url(#paint0_linear_486_3634)"/>
<path d="M437.467 36.54C403.557 36.54 376.157 63.9401 376.157 97.8501C376.157 131.76 403.557 159.16 437.467 159.16C471.377 159.16 498.777 131.76 498.777 97.8501C498.777 63.9401 471.367 36.54 437.467 36.54ZM437.467 136.4C416.107 136.4 398.917 119.22 398.917 97.8501C398.917 76.4801 416.097 59.3 437.467 59.3C458.837 59.3 476.017 76.4801 476.017 97.8501C476.477 119.21 458.827 136.4 437.467 136.4Z" fill="white"/>
<path d="M814.597 130.15C807.627 134.33 799.267 136.65 790.447 135.72C772.797 133.86 758.397 119.93 756.537 102.28C754.217 79.5201 771.867 60.0101 794.157 60.0101C801.127 60.0101 807.627 61.8701 813.197 65.1201C818.307 67.9101 824.347 66.9801 828.057 62.3301C831.777 57.2201 830.377 49.7901 824.807 46.0701C815.057 40.0301 803.447 37.2501 791.367 37.7101C761.177 39.1001 736.097 63.2501 734.237 93.4401C731.917 128.74 759.777 158 794.147 158C804.827 158 815.047 155.21 823.867 150.1C830.367 146.38 831.767 138.02 827.587 132.45C824.817 128.29 819.247 127.37 814.597 130.15Z" fill="white"/>
<path d="M927.807 149.46C927.807 155.5 922.697 159.68 917.127 159.68H915.267C909.697 158.75 905.977 153.64 905.977 148.07C906.437 141.57 905.047 135.07 901.797 129.03C894.367 115.56 880.897 108.59 866.497 109.52V145.75C866.497 152.72 860.927 158.29 853.957 158.29C846.987 158.29 841.417 152.72 841.417 145.75V50.54C841.417 43.57 846.987 38 853.957 38C860.927 38 866.497 43.57 866.497 50.54V86.77C881.827 84.91 891.117 74.23 894.827 67.26C898.077 61.69 899.007 56.11 899.007 56.11C899.467 53.32 899.467 50.54 899.467 47.75C899.007 42.18 903.187 37.07 908.757 36.14C915.257 35.21 921.297 39.86 921.757 46.36C921.757 51 921.757 55.65 920.827 59.83C919.897 65.87 917.577 72.83 913.397 80.27C910.147 85.84 905.037 91.42 898.997 95.6C907.357 100.71 914.327 107.68 919.437 116.04C925.947 126.7 928.277 138.31 927.807 149.46Z" fill="white"/>
<path d="M732.497 138.61L680.477 43.8601C675.367 34.5701 661.897 34.5701 656.787 43.8601L604.767 138.61C601.977 143.72 602.907 149.76 606.627 154.4C610.807 159.04 618.707 160.44 623.807 155.33C626.127 153.01 627.057 149.76 628.917 146.51C630.307 144.19 631.707 141.87 632.637 139.54C635.887 133.97 638.677 128.39 641.927 122.82C646.567 114 651.677 105.17 656.327 96.3501C656.327 95.8901 656.787 95.4201 656.787 95.4201C661.897 86.1301 675.367 86.1301 680.477 95.4201C684.197 102.39 688.377 109.82 692.087 116.78C696.267 124.21 700.447 131.64 704.627 139.07C707.417 144.64 709.267 151.15 713.917 155.79C719.027 160.43 726.457 159.51 730.637 154.4C734.347 149.75 735.277 143.72 732.497 138.61Z" fill="white"/>
<path d="M681.547 137.44H696.407H721.487C727.527 137.44 732.167 142.08 732.167 148.12C732.167 154.16 727.527 158.8 721.487 158.8H681.547C675.507 158.8 670.867 154.16 670.867 148.12C670.867 142.55 675.507 137.44 681.547 137.44Z" fill="white"/>
<path d="M628.117 57.0902L576.097 151.84C570.987 161.13 557.517 161.13 552.407 151.84L500.387 57.0902C497.597 51.9802 498.527 45.9402 502.247 41.3002C506.427 36.6602 514.327 35.2602 519.427 40.3702C521.747 42.6902 522.677 45.9402 524.537 49.1902C525.927 51.5102 527.327 53.8302 528.257 56.1602C531.507 61.7302 534.297 67.3102 537.547 72.8802C542.187 81.7002 547.297 90.5302 551.947 99.3502C551.947 99.8102 552.407 100.28 552.407 100.28C557.517 109.57 570.987 109.57 576.097 100.28C579.817 93.3102 583.997 85.8802 587.707 78.9202C591.887 71.4902 596.067 64.0602 600.247 56.6302C603.037 51.0602 604.887 44.5502 609.537 39.9102C614.647 35.2702 622.077 36.1902 626.257 41.3002C629.977 45.9402 630.907 52.4402 628.117 57.0902Z" fill="white"/>
<path d="M575.167 36.8901H590.027H615.107C621.147 36.8901 625.787 41.5301 625.787 47.5701C625.787 53.6101 621.147 58.2502 615.107 58.2502H575.167C569.127 58.2502 564.487 53.6101 564.487 47.5701C564.017 41.5401 569.127 36.8901 575.167 36.8901Z" fill="white"/>
<path d="M364.167 49.5501V140.12C364.167 146.54 363.377 153.72 357.167 157.18C354.507 158.66 351.377 159.13 348.337 158.95C344.997 158.75 341.217 157.87 338.417 156.01C330.367 150.65 325.317 141.87 319.527 134.38C313.827 127 308.237 119.54 302.757 111.99C298.607 106.27 294.387 97.7 287.077 95.54C283.897 94.63 281.137 94.8301 278.327 96.7101C275.837 98.3801 274.557 100.72 274.217 103.72C273.727 108.05 274.077 112.55 274.077 116.91C274.077 120.67 274.077 124.44 274.077 128.2C274.077 133.8 274.077 139.4 274.077 145.23C274.077 149.81 274.147 155.53 269.437 157.94C267.927 158.71 266.217 159.04 264.527 159.17C260.217 159.5 254.307 159.01 251.777 154.98C249.917 152.66 249.917 149.41 249.917 146.16V55.5901C249.917 50.0201 250.377 44.44 254.557 40.26C256.887 37.92 260.177 36.78 263.437 36.76C268.317 36.73 273.077 38.4401 277.077 41.1701C282.097 44.6101 285.397 50.0801 289.047 54.8501C299.097 68.0001 309.427 80.9201 319.707 93.8901C322.337 97.2101 325.557 100.84 330.157 100.82C333.637 100.8 337.187 98.7601 338.617 95.5301C340.007 93.2101 340.007 89.9601 340.007 87.1701C340.007 87.1701 340.007 50.55 340.007 50.48C340.007 43.82 342.667 36.72 350.287 36.29C358.167 35.84 364.167 41.7901 364.167 49.5501Z" fill="white"/>
<defs>
<linearGradient id="paint0_linear_486_3634" x1="1.60092" y1="98.9658" x2="224.961" y2="95.3151" gradientUnits="userSpaceOnUse">
<stop stop-color="white"/>
<stop offset="0.1463" stop-color="#D5EEFC"/>
<stop offset="0.3532" stop-color="#94D5F7"/>
<stop offset="0.5042" stop-color="#5AC5F2"/>
<stop offset="0.5824" stop-color="#38BFF0"/>
<stop offset="0.705" stop-color="#2DBCED"/>
<stop offset="0.807" stop-color="#00B2E5"/>
<stop offset="0.9012" stop-color="#00A3D6"/>
<stop offset="0.9908" stop-color="#008FC2"/>
<stop offset="0.9944" stop-color="#008EC2"/>
</linearGradient>
</defs>
</svg>
